<svg width="124" height="57" viewBox="0 0 124 57" fill="none" xmlns="http://www.w3.org/2000/svg">
<path d="M1.38 51V41.08H2.9L3.02 42.52C3.34 41.9867 3.76667 41.5733 4.3 41.28C4.83333 40.9867 5.43333 40.84 6.1 40.84C6.88667 40.84 7.56 41 8.12 41.32C8.69333 41.64 9.13333 42.1267 9.44 42.78C9.78667 42.18 10.26 41.7067 10.86 41.36C11.4733 41.0133 12.1333 40.84 12.84 40.84C14.0267 40.84 14.9733 41.2 15.68 41.92C16.3867 42.6267 16.74 43.72 16.74 45.2V51H15.08V45.38C15.08 44.3533 14.8733 43.58 14.46 43.06C14.0467 42.54 13.4533 42.28 12.68 42.28C11.88 42.28 11.2133 42.5933 10.68 43.22C10.16 43.8333 9.9 44.7133 9.9 45.86V51H8.22V45.38C8.22 44.3533 8.01333 43.58 7.6 43.06C7.18667 42.54 6.59333 42.28 5.82 42.28C5.03333 42.28 4.37333 42.5933 3.84 43.22C3.32 43.8333 3.06 44.7133 3.06 45.86V51H1.38ZM23.7306 51.24C22.784 51.24 21.944 51.0267 21.2106 50.6C20.4773 50.16 19.8973 49.5533 19.4706 48.78C19.0573 48.0067 18.8506 47.0933 18.8506 46.04C18.8506 45 19.0573 44.0933 19.4706 43.32C19.884 42.5333 20.4573 41.9267 21.1906 41.5C21.9373 41.06 22.7973 40.84 23.7706 40.84C24.7306 40.84 25.5573 41.06 26.2506 41.5C26.9573 41.9267 27.4973 42.4933 27.8706 43.2C28.244 43.9067 28.4306 44.6667 28.4306 45.48C28.4306 45.6267 28.424 45.7733 28.4106 45.92C28.4106 46.0667 28.4106 46.2333 28.4106 46.42H20.5106C20.5506 47.18 20.724 47.8133 21.0306 48.32C21.3506 48.8133 21.744 49.1867 22.2106 49.44C22.6906 49.6933 23.1973 49.82 23.7306 49.82C24.424 49.82 25.004 49.66 25.4706 49.34C25.9373 49.02 26.2773 48.5867 26.4906 48.04H28.1506C27.884 48.96 27.3706 49.7267 26.6106 50.34C25.864 50.94 24.904 51.24 23.7306 51.24ZM23.7306 42.26C22.9306 42.26 22.2173 42.5067 21.5906 43C20.9773 43.48 20.624 44.1867 20.5306 45.12H26.7706C26.7306 44.2267 26.424 43.5267 25.8506 43.02C25.2773 42.5133 24.5706 42.26 23.7306 42.26ZM35.1173 51.24C34.1707 51.24 33.3307 51.0267 32.5973 50.6C31.864 50.16 31.284 49.5533 30.8573 48.78C30.444 48.0067 30.2373 47.0933 30.2373 46.04C30.2373 45 30.444 44.0933 30.8573 43.32C31.2707 42.5333 31.844 41.9267 32.5773 41.5C33.324 41.06 34.184 40.84 35.1573 40.84C36.1173 40.84 36.944 41.06 37.6373 41.5C38.344 41.9267 38.884 42.4933 39.2573 43.2C39.6307 43.9067 39.8173 44.6667 39.8173 45.48C39.8173 45.6267 39.8107 45.7733 39.7973 45.92C39.7973 46.0667 39.7973 46.2333 39.7973 46.42H31.8973C31.9373 47.18 32.1107 47.8133 32.4173 48.32C32.7373 48.8133 33.1307 49.1867 33.5973 49.44C34.0773 49.6933 34.584 49.82 35.1173 49.82C35.8107 49.82 36.3907 49.66 36.8573 49.34C37.324 49.02 37.664 48.5867 37.8773 48.04H39.5373C39.2707 48.96 38.7573 49.7267 37.9973 50.34C37.2507 50.94 36.2907 51.24 35.1173 51.24ZM35.1173 42.26C34.3173 42.26 33.604 42.5067 32.9773 43C32.364 43.48 32.0107 44.1867 31.9173 45.12H38.1573C38.1173 44.2267 37.8107 43.5267 37.2373 43.02C36.664 42.5133 35.9573 42.26 35.1173 42.26ZM45.632 51C44.7254 51 44.012 50.78 43.492 50.34C42.972 49.9 42.712 49.1067 42.712 47.96V42.5H40.992V41.08H42.712L42.932 38.7H44.392V41.08H47.312V42.5H44.392V47.96C44.392 48.5867 44.5187 49.0133 44.772 49.24C45.0254 49.4533 45.472 49.56 46.112 49.56H47.152V51H45.632ZM50.5664 55.4L52.9464 50.18H52.3664L48.4464 41.08H50.7464L53.7864 48.42L56.9664 41.08H59.2064L52.8064 55.4H50.5664ZM64.6909 51.24C63.7443 51.24 62.8909 51.0267 62.1309 50.6C61.3843 50.16 60.7909 49.5533 60.3509 48.78C59.9109 47.9933 59.6909 47.08 59.6909 46.04C59.6909 45 59.9109 44.0933 60.3509 43.32C60.8043 42.5333 61.4109 41.9267 62.1709 41.5C62.9309 41.06 63.7776 40.84 64.7109 40.84C65.6576 40.84 66.5043 41.06 67.2509 41.5C68.0109 41.9267 68.6109 42.5333 69.0509 43.32C69.5043 44.0933 69.7309 45 69.7309 46.04C69.7309 47.08 69.5043 47.9933 69.0509 48.78C68.6109 49.5533 68.0109 50.16 67.2509 50.6C66.4909 51.0267 65.6376 51.24 64.6909 51.24ZM64.6909 49.42C65.1976 49.42 65.6643 49.2933 66.0909 49.04C66.5309 48.7867 66.8843 48.4133 67.1509 47.92C67.4176 47.4133 67.5509 46.7867 67.5509 46.04C67.5509 45.2933 67.4176 44.6733 67.1509 44.18C66.8976 43.6733 66.5509 43.2933 66.1109 43.04C65.6843 42.7867 65.2176 42.66 64.7109 42.66C64.2043 42.66 63.7309 42.7867 63.2909 43.04C62.8643 43.2933 62.5176 43.6733 62.2509 44.18C61.9843 44.6733 61.8509 45.2933 61.8509 46.04C61.8509 46.7867 61.9843 47.4133 62.2509 47.92C62.5176 48.4133 62.8643 48.7867 63.2909 49.04C63.7176 49.2933 64.1843 49.42 64.6909 49.42ZM81.1436 41.08V51H79.2636L79.1036 49.26C78.7969 49.8733 78.3436 50.36 77.7436 50.72C77.1569 51.0667 76.4769 51.24 75.7036 51.24C74.5036 51.24 73.5569 50.8667 72.8636 50.12C72.1836 49.3733 71.8436 48.26 71.8436 46.78V41.08H73.9436V46.56C73.9436 48.48 74.7303 49.44 76.3036 49.44C77.0903 49.44 77.7369 49.16 78.2436 48.6C78.7636 48.04 79.0236 47.24 79.0236 46.2V41.08H81.1436ZM83.8205 51V41.08H85.7205L85.9005 42.96C86.2471 42.3067 86.7271 41.7933 87.3405 41.42C87.9671 41.0333 88.7205 40.84 89.6005 40.84V43.06H89.0205C88.4338 43.06 87.9071 43.16 87.4405 43.36C86.9871 43.5467 86.6205 43.8733 86.3405 44.34C86.0738 44.7933 85.9405 45.4267 85.9405 46.24V51H83.8205ZM95.3781 51.24C94.1248 51.24 93.0915 50.9333 92.2781 50.32C91.4648 49.7067 90.9981 48.8933 90.8781 47.88H93.0181C93.1248 48.3333 93.3781 48.7267 93.7781 49.06C94.1781 49.38 94.7048 49.54 95.3581 49.54C95.9981 49.54 96.4648 49.4067 96.7581 49.14C97.0515 48.8733 97.1981 48.5667 97.1981 48.22C97.1981 47.7133 96.9915 47.3733 96.5781 47.2C96.1781 47.0133 95.6181 46.8467 94.8981 46.7C94.3381 46.58 93.7781 46.42 93.2181 46.22C92.6715 46.02 92.2115 45.74 91.8381 45.38C91.4781 45.0067 91.2981 44.5067 91.2981 43.88C91.2981 43.0133 91.6315 42.2933 92.2981 41.72C92.9648 41.1333 93.8981 40.84 95.0981 40.84C96.2048 40.84 97.0981 41.1067 97.7781 41.64C98.4715 42.1733 98.8781 42.9267 98.9981 43.9H96.9581C96.8915 43.4733 96.6915 43.14 96.3581 42.9C96.0381 42.66 95.6048 42.54 95.0581 42.54C94.5248 42.54 94.1115 42.6533 93.8181 42.88C93.5248 43.0933 93.3781 43.3733 93.3781 43.72C93.3781 44.0667 93.5781 44.34 93.9781 44.54C94.3915 44.74 94.9315 44.92 95.5981 45.08C96.2648 45.2267 96.8781 45.4 97.4381 45.6C98.0115 45.7867 98.4715 46.0667 98.8181 46.44C99.1648 46.8133 99.3381 47.36 99.3381 48.08C99.3515 48.9867 98.9981 49.74 98.2781 50.34C97.5715 50.94 96.6048 51.24 95.3781 51.24ZM106.293 51.24C105.319 51.24 104.453 51.0267 103.693 50.6C102.946 50.16 102.359 49.5533 101.933 48.78C101.506 48.0067 101.293 47.1067 101.293 46.08C101.293 45.04 101.499 44.1267 101.913 43.34C102.339 42.5533 102.926 41.94 103.673 41.5C104.433 41.06 105.313 40.84 106.313 40.84C107.286 40.84 108.133 41.06 108.853 41.5C109.573 41.9267 110.133 42.5 110.533 43.22C110.933 43.94 111.133 44.7333 111.133 45.6C111.133 45.7333 111.126 45.88 111.113 46.04C111.113 46.1867 111.106 46.3533 111.093 46.54H103.373C103.439 47.5 103.753 48.2333 104.313 48.74C104.886 49.2333 105.546 49.48 106.293 49.48C106.893 49.48 107.393 49.3467 107.793 49.08C108.206 48.8 108.513 48.4267 108.713 47.96H110.833C110.566 48.8933 110.033 49.6733 109.233 50.3C108.446 50.9267 107.466 51.24 106.293 51.24ZM106.293 42.58C105.586 42.58 104.959 42.7933 104.413 43.22C103.866 43.6333 103.533 44.26 103.413 45.1H109.013C108.973 44.3267 108.699 43.7133 108.193 43.26C107.686 42.8067 107.053 42.58 106.293 42.58ZM113.332 51V36.6H115.452V51H113.332ZM118.637 51V42.86H117.217V41.08H118.637V39.64C118.637 38.56 118.904 37.7867 119.437 37.32C119.984 36.84 120.75 36.6 121.737 36.6H122.777V38.4H122.057C121.59 38.4 121.257 38.5 121.057 38.7C120.857 38.8867 120.757 39.2067 120.757 39.66V41.08H123.037V42.86H120.757V51H118.637Z" fill="black"/>
<g clip-path="url(#clip0)">
<path d="M53.5181 6.88371C52.8191 6.88371 52.2504 6.31337 52.2504 5.61233V4.87167C52.2504 3.5884 51.2079 2.54278 49.9284 2.54278C48.5739 2.54278 47.5353 3.5884 47.5353 4.87167V5.61233C47.5353 6.31337 46.9666 6.88371 46.2676 6.88371C45.5687 6.88371 45 6.31733 45 5.61629V4.87167C45 2.18631 47.1799 0 49.8573 0C52.6098 0 54.7857 2.18631 54.7857 4.87167V5.61233C54.7857 6.31733 54.221 6.88371 53.5181 6.88371Z" fill="#3D3813"/>
<path d="M74.7324 6.88371C74.0334 6.88371 73.4647 6.31337 73.4647 5.61233V4.87167C73.4647 3.5884 72.4222 2.54278 71.1427 2.54278C69.7882 2.54278 68.7496 3.5884 68.7496 4.87167V5.61233C68.7496 6.31337 68.1809 6.88371 67.4819 6.88371C66.783 6.88371 66.2143 6.31337 66.2143 5.61233V4.87167C66.2143 2.18631 68.3942 0 71.0716 0C73.8202 0 76 2.18631 76 4.87167V5.61233C76 6.31733 75.4314 6.88371 74.7324 6.88371Z" fill="#3D3813"/>
<path d="M60.5 25C49.1584 25 45.5648 17.5895 45.4186 17.2726C45.1225 16.6389 45.3949 15.8824 46.0268 15.5814C46.6586 15.2844 47.4129 15.5577 47.7091 16.1874C47.8433 16.4647 50.8525 22.4572 60.5 22.4572C70.2463 22.4572 73.2594 16.2587 73.287 16.1953C73.5832 15.5616 74.3414 15.2883 74.9733 15.5854C75.6051 15.8824 75.8816 16.6389 75.5814 17.2766C75.4353 17.5895 71.8417 25 60.5 25Z" fill="#3D3813"/>
</g>
<defs>
<clipPath id="clip0">
<rect width="31" height="25" fill="white" transform="translate(45)"/>
</clipPath>
</defs>
</svg>
